<!DOCTYPE svg PUBLIC "-//W3C//DTD SVG 1.1//EN" "http://www.w3.org/Graphics/SVG/1.1/DTD/svg11.dtd">
<!-- Uploaded to: SVG Repo, www.svgrepo.com, Transformed by: SVG Repo Mixer Tools -->
<svg width="800px" height="800px" viewBox="-2.4 -2.4 28.80 28.80" xmlns="http://www.w3.org/2000/svg" fill="#E85C0D">
<g id="SVGRepo_bgCarrier" stroke-width="0">
<rect x="-2.4" y="-2.4" width="28.80" height="28.80" rx="14.4" fill="#F5F5F5" strokewidth="0"/>
</g>
<g id="SVGRepo_tracerCarrier" stroke-linecap="round" stroke-linejoin="round"/>
<g id="SVGRepo_iconCarrier"> <g> <path fill="none" d="M0 0h24v24H0z"/> <path d="M14.121 10.48a1 1 0 0 0-1.414 0l-.707.706a2 2 0 1 1-2.828-2.828l5.63-5.632a6.5 6.5 0 0 1 6.377 10.568l-2.108 2.135-4.95-4.95zM3.161 4.468a6.503 6.503 0 0 1 8.009-.938L7.757 6.944a4 4 0 0 0 5.513 5.794l.144-.137 4.243 4.242-4.243 4.243a2 2 0 0 1-2.828 0L3.16 13.66a6.5 6.5 0 0 1 0-9.192z"/> </g> </g>
</svg>